<?xml version="1.0" encoding="UTF-8"?>
<svg xmlns="http://www.w3.org/2000/svg" viewBox="190 365 659 260" role="img" aria-labelledby="title desc">
  <title id="title">MCP Station logo</title>
  <desc id="desc">Scalable vector reconstruction of the supplied MCP monogram with a transparent background.</desc>
  <defs>
    <linearGradient id="mcpGradient" x1="0" y1="0" x2="1" y2="0">
      <stop offset="0%" stop-color="#23246A"/>
      <stop offset="30%" stop-color="#23246B"/>
      <stop offset="40%" stop-color="#262271"/>
      <stop offset="47%" stop-color="#2A217D"/>
      <stop offset="53%" stop-color="#342191"/>
      <stop offset="58%" stop-color="#4521B0"/>
      <stop offset="62%" stop-color="#5E22DD"/>
      <stop offset="68%" stop-color="#6822EF"/>
      <stop offset="76%" stop-color="#6C24F5"/>
      <stop offset="100%" stop-color="#6D26F4"/>
    </linearGradient>
  </defs>
  <path d="M0 0 C0.821 -0.013 1.643 -0.025 2.489 -0.038 C2.931 -0.037 2.931 -0.037 5.169 -0.03 C6.082 -0.035 6.996 -0.04 7.938 -0.045 C9.872 -0.052 11.806 -0.051 13.74 -0.042 C16.69 -0.034 19.639 -0.062 22.589 -0.094 C24.469 -0.096 26.35 -0.095 28.231 -0.092 C29.11 -0.103 29.988 -0.115 30.893 -0.126 C41.378 -0.008 46.63 6.869 53.61 13.955 C55.027 15.38 56.444 16.804 57.86 18.229 C59.836 20.217 61.807 22.211 63.778 24.204 C67.217 27.681 70.66 31.153 74.108 34.621 C75.938 36.464 77.766 38.309 79.591 40.158 C83.98 44.581 88.42 48.86 93.167 52.899 C96.052 55.405 98.721 58.119 101.399 60.842 C101.935 61.382 102.472 61.923 103.024 62.48 C104.318 63.786 105.609 65.095 106.899 66.404 C111.049 64.776 113.791 61.751 116.842 58.625 C117.134 58.33 117.134 58.33 118.612 56.836 C119.879 55.555 121.143 54.272 122.405 52.987 C124.406 50.952 126.413 48.924 128.423 46.898 C134.135 41.136 139.837 35.364 145.529 29.583 C149.013 26.044 152.507 22.516 156.008 18.994 C157.337 17.652 158.663 16.307 159.984 14.957 C161.837 13.066 163.701 11.188 165.568 9.312 C165.838 9.034 165.838 9.034 167.202 7.626 C171.802 3.049 176.7 0.026 183.426 0.032 C183.833 0.029 183.833 0.029 185.892 0.013 C186.746 0.022 187.601 0.031 188.481 0.041 C188.929 0.041 188.929 0.041 191.195 0.039 C193.075 0.042 194.955 0.051 196.834 0.068 C199.72 0.092 202.605 0.088 205.491 0.082 C207.321 0.087 209.151 0.094 210.981 0.103 C211.846 0.102 212.71 0.101 213.601 0.101 C219.668 0.173 219.668 0.173 221.899 2.404 C221.576 5.781 220.24 7.423 217.837 9.717 C217.206 10.321 216.576 10.926 215.927 11.549 C213.359 13.899 210.746 16.189 208.087 18.435 C183.599 40.474 169.021 70.653 161.899 102.404 C169.489 102.404 177.079 102.404 184.899 102.404 C185.559 98.774 186.219 95.144 186.899 91.404 C188.023 88.203 189.165 85.181 190.524 82.092 C190.877 81.277 191.229 80.462 191.593 79.623 C196.871 67.675 203.219 57.242 211.899 47.404 C212.643 46.539 213.387 45.674 214.153 44.783 C227.029 30.071 242.156 19.383 259.899 11.404 C260.212 11.262 260.212 11.262 261.794 10.545 C277.595 3.492 293.776 0.262 311.041 0.243 C311.585 0.24 311.585 0.24 314.34 0.228 C317.918 0.213 321.497 0.206 325.075 0.201 C327.567 0.195 330.06 0.189 332.552 0.184 C337.765 0.173 342.977 0.167 348.189 0.164 C353.547 0.16 358.904 0.146 364.261 0.123 C370.734 0.095 377.208 0.082 383.682 0.08 C386.149 0.077 388.617 0.069 391.085 0.056 C394.525 0.039 397.964 0.041 401.404 0.048 C402.428 0.038 403.452 0.029 404.507 0.02 C404.975 0.022 404.975 0.022 407.34 0.037 C407.747 0.036 407.747 0.036 409.803 0.032 C412.44 0.5 413.331 1.258 414.899 3.404 C415.712 15.755 413.074 30.218 406.536 40.791 C402 45.262 397.583 46.854 391.379 46.921 C390.57 46.909 389.762 46.898 388.929 46.886 C388.058 46.89 387.187 46.894 386.289 46.898 C384.407 46.904 382.524 46.901 380.641 46.89 C377.644 46.873 374.649 46.88 371.652 46.894 C364.204 46.924 356.755 46.911 349.306 46.899 C343.017 46.891 336.729 46.899 330.44 46.928 C327.517 46.935 324.595 46.919 321.673 46.901 C306.036 46.904 291.906 49.034 277.899 56.404 C276.999 56.845 276.1 57.286 275.173 57.74 C267.959 61.418 261.936 66.032 255.899 71.404 C255.115 72.092 254.332 72.781 253.524 73.49 C246.087 80.437 241.205 88.881 236.024 97.537 C229.942 107.503 224.283 112.292 212.899 115.404 C208.902 115.921 204.972 115.953 200.945 115.922 C200.375 115.925 200.375 115.925 197.492 115.943 C193.759 115.96 190.027 115.949 186.294 115.935 C183.683 115.938 181.072 115.942 178.462 115.947 C173.006 115.954 167.55 115.945 162.094 115.926 C155.804 115.904 149.514 115.911 143.224 115.933 C137.145 115.953 131.066 115.951 124.987 115.939 C122.412 115.937 119.837 115.94 117.262 115.949 C113.663 115.959 110.064 115.944 106.465 115.922 C105.936 115.926 105.936 115.926 103.261 115.946 C93.975 115.84 88.195 113.09 81.462 106.717 C80.972 106.257 80.483 105.797 79.978 105.323 C74.548 100.173 69.285 94.843 64.038 89.507 C60.789 86.216 57.52 83.024 54.009 80.013 C49.039 75.749 44.485 71.074 39.899 66.404 C39.675 70.511 39.512 74.615 39.405 78.727 C39.36 80.121 39.299 81.515 39.22 82.908 C38.587 94.434 38.587 94.434 41.802 99.262 C44.059 101.532 46.345 103.479 48.899 105.404 C50.239 106.563 51.574 107.729 52.899 108.904 C53.549 109.461 54.199 110.018 54.868 110.592 C57.136 112.615 59.265 114.741 61.399 116.904 C72.337 127.954 80.773 135.57 96.812 135.697 C97.973 135.696 99.134 135.696 100.329 135.695 C100.949 135.698 100.949 135.698 104.082 135.715 C107.465 135.731 110.847 135.737 114.23 135.739 C116.349 135.74 118.469 135.744 120.589 135.75 C128.002 135.768 135.415 135.776 142.828 135.775 C149.707 135.773 156.587 135.795 163.466 135.826 C169.396 135.852 175.326 135.863 181.255 135.862 C184.787 135.861 188.317 135.867 191.848 135.888 C195.797 135.911 199.744 135.902 203.693 135.89 C204.841 135.901 205.99 135.912 207.173 135.924 C222.362 135.807 234.433 130.407 245.587 120.279 C250.096 115.484 253.372 109.659 256.841 104.095 C268.204 85.936 282.168 75.053 303.044 69.872 C306.767 69.262 310.442 69.243 314.203 69.23 C315.026 69.224 315.85 69.217 316.698 69.21 C318.482 69.196 320.265 69.184 322.049 69.174 C324.879 69.158 327.709 69.135 330.54 69.109 C338.585 69.039 346.631 68.979 354.676 68.927 C359.603 68.895 364.53 68.854 369.457 68.807 C371.328 68.791 373.198 68.779 375.068 68.77 C391.872 68.692 407.23 67.911 419.899 55.404 C430.561 41.693 433.997 25.61 434.591 8.584 C434.88 5.598 435.242 3.87 436.899 1.404 C439.451 0.128 441.248 0.272 444.106 0.264 C445.21 0.258 446.314 0.252 447.452 0.246 C448.669 0.245 449.887 0.244 451.141 0.243 C451.781 0.24 451.781 0.24 455.015 0.228 C458.533 0.215 462.05 0.208 465.568 0.204 C467.772 0.201 469.976 0.197 472.18 0.192 C479.095 0.179 486.009 0.169 492.924 0.165 C500.869 0.161 508.814 0.143 516.759 0.114 C522.918 0.092 529.077 0.082 535.237 0.081 C538.905 0.08 542.573 0.074 546.241 0.056 C575.595 -0.08 601.144 1.644 623.649 22.592 C643.215 43.236 646.619 68.816 646.031 96.077 C645.205 116.92 636.399 135.612 621.899 150.404 C621.234 151.105 620.569 151.807 619.884 152.529 C607.109 165.011 588.735 170.547 571.22 170.518 C570.487 170.518 569.755 170.518 569 170.518 C566.603 170.517 564.206 170.51 561.809 170.502 C560.138 170.5 558.466 170.498 556.795 170.497 C552.414 170.494 548.033 170.484 543.651 170.473 C539.173 170.462 534.695 170.458 530.218 170.453 C521.445 170.442 512.672 170.425 503.899 170.404 C503.904 171.377 503.908 172.35 503.913 173.352 C503.953 182.505 503.983 191.657 504.003 200.81 C504.013 205.516 504.027 210.222 504.05 214.928 C504.072 219.467 504.084 224.005 504.089 228.544 C504.093 230.279 504.1 232.013 504.111 233.747 C504.125 236.171 504.127 238.594 504.126 241.017 C504.133 241.739 504.141 242.461 504.148 243.205 C504.127 248.176 504.127 248.176 501.899 250.404 C499.242 250.658 499.242 250.658 495.829 250.663 C495.191 250.666 495.191 250.666 491.966 250.682 C490.569 250.678 489.171 250.674 487.774 250.67 C486.347 250.671 484.92 250.673 483.492 250.675 C480.5 250.678 477.507 250.674 474.514 250.665 C470.674 250.653 466.834 250.66 462.993 250.672 C460.046 250.679 457.098 250.677 454.151 250.672 C452.734 250.67 451.318 250.672 449.902 250.677 C447.925 250.682 445.947 250.673 443.969 250.663 C443.406 250.662 443.406 250.662 440.556 250.658 C437.899 250.404 437.899 250.404 435.899 248.404 C435.637 245.675 435.498 243.052 435.458 240.318 C435.444 239.506 435.43 238.694 435.416 237.857 C435.393 236.13 435.375 234.404 435.364 232.677 C435.337 230.073 435.262 227.472 435.186 224.869 C435.016 213.981 436.585 207.526 442.899 198.404 C444.343 195.389 445.486 192.308 446.587 189.154 C446.875 188.348 447.163 187.543 447.46 186.712 C451.489 175.189 454.088 163.476 455.899 151.404 C448.969 151.404 442.039 151.404 434.899 151.404 C434.569 154.704 434.239 158.004 433.899 161.404 C427.844 191.057 411.801 216.345 386.786 233.545 C373.628 241.963 360.017 247.637 344.899 251.404 C343.68 251.725 342.46 252.046 341.204 252.377 C306.901 259.949 269.109 253.518 239.141 235.537 C233.465 231.803 228.148 227.713 222.899 223.404 C222.075 222.735 221.252 222.066 220.403 221.377 C214.454 216.335 209.628 210.587 204.899 204.404 C204.292 203.613 203.685 202.821 203.059 202.006 C192.347 187.382 185.594 171.102 181.899 153.404 C174.969 153.404 168.039 153.404 160.899 153.404 C166.817 185.706 180.155 211.878 202.899 235.404 C202.239 235.734 201.579 236.064 200.899 236.404 C198.692 235.234 196.667 234.023 194.587 232.654 C193.966 232.249 193.345 231.845 192.705 231.428 C185.977 226.94 179.899 221.812 173.899 216.404 C173.172 215.761 172.445 215.118 171.696 214.455 C159.654 203.171 150.371 187.921 144.899 172.404 C144.899 171.414 144.899 170.424 144.899 169.404 C139.411 173.818 134.011 178.25 128.837 183.029 C116.657 194.01 116.657 194.01 110.399 194.904 C104.886 192.541 101.163 188.546 96.899 184.404 C95.427 183.066 93.955 181.728 92.477 180.397 C87.906 176.271 83.476 172.034 79.149 167.654 C75.561 164.025 71.901 160.607 68.016 157.302 C64.732 154.357 61.658 151.205 58.579 148.047 C55.103 144.506 55.103 144.506 52.899 143.404 C52.906 144.715 52.912 146.026 52.919 147.377 C52.98 159.708 53.025 172.04 53.055 184.371 C53.07 190.712 53.092 197.052 53.125 203.392 C53.158 209.507 53.176 215.621 53.184 221.735 C53.189 224.072 53.2 226.41 53.216 228.747 C53.238 232.011 53.241 235.274 53.24 238.538 C53.251 239.513 53.261 240.488 53.272 241.492 C53.27 241.935 53.27 241.935 53.26 244.177 C53.263 244.95 53.265 245.722 53.268 246.518 C53.146 247.14 53.025 247.763 52.899 248.404 C49.573 250.622 48.525 250.656 44.649 250.663 C44.114 250.666 44.114 250.666 41.403 250.682 C40.247 250.678 39.09 250.674 37.899 250.67 C36.712 250.672 35.525 250.674 34.302 250.675 C31.79 250.677 29.278 250.673 26.766 250.665 C22.915 250.654 19.063 250.665 15.212 250.677 C12.774 250.676 10.337 250.674 7.899 250.67 C6.743 250.674 5.587 250.678 4.395 250.682 C3.324 250.676 2.253 250.669 1.149 250.663 C0.206 250.661 -0.738 250.66 -1.71 250.658 C-4.101 250.404 -4.101 250.404 -7.101 248.404 C-7.477 246.588 -7.477 246.588 -7.478 244.34 C-7.486 243.485 -7.494 242.629 -7.502 241.747 C-7.495 240.802 -7.489 239.857 -7.482 238.883 C-7.486 237.883 -7.491 236.882 -7.496 235.852 C-7.508 232.479 -7.498 229.107 -7.489 225.734 C-7.493 223.325 -7.498 220.916 -7.505 218.507 C-7.517 212.629 -7.515 206.752 -7.507 200.874 C-7.5 196.098 -7.499 191.322 -7.502 186.547 C-7.503 185.868 -7.503 185.189 -7.504 184.489 C-7.505 183.111 -7.506 181.732 -7.507 180.353 C-7.515 167.411 -7.505 154.47 -7.489 141.528 C-7.476 130.417 -7.478 119.307 -7.492 108.196 C-7.508 95.303 -7.514 82.411 -7.505 69.518 C-7.504 68.144 -7.503 66.77 -7.502 65.395 C-7.502 64.719 -7.501 64.043 -7.501 63.346 C-7.498 58.575 -7.503 53.804 -7.51 49.033 C-7.519 42.614 -7.512 36.195 -7.495 29.775 C-7.491 27.414 -7.492 25.053 -7.499 22.692 C-7.507 19.478 -7.497 16.266 -7.482 13.053 C-7.488 12.109 -7.495 11.166 -7.502 10.194 C-7.494 9.336 -7.486 8.478 -7.478 7.594 C-7.478 6.852 -7.477 6.11 -7.477 5.345 C-6.663 1.144 -3.96 0.03 0 0 Z M485.899 44.404 C485.805 46.276 485.782 48.151 485.786 50.025 C485.786 51.227 485.786 52.428 485.786 53.665 C485.791 54.973 485.796 56.28 485.802 57.627 C485.803 58.97 485.805 60.314 485.806 61.658 C485.81 65.201 485.819 68.744 485.831 72.286 C485.841 75.899 485.845 79.512 485.85 83.125 C485.861 90.218 485.878 97.311 485.899 104.404 C485.372 104.422 485.372 104.422 482.706 104.511 C472.677 104.848 462.647 105.186 452.618 105.526 C447.464 105.7 442.31 105.874 437.156 106.047 C432.164 106.214 427.171 106.383 422.178 106.553 C420.293 106.616 418.408 106.68 416.522 106.743 C406.336 107.083 396.151 107.459 385.968 107.904 C385.056 107.943 384.144 107.981 383.204 108.021 C364.981 108.843 364.981 108.843 358.899 115.404 C357.974 118.179 357.777 119.864 357.759 122.728 C357.443 140.009 355.155 154.613 342.802 167.611 C331.685 178.178 318.506 181.801 303.427 181.611 C285.372 180.551 273.79 173.311 261.986 160.271 C256.886 154.784 253.288 152.756 245.865 152.271 C243.877 152.21 241.887 152.244 239.899 152.279 C239.22 152.288 238.54 152.297 237.841 152.306 C236.193 152.33 234.546 152.365 232.899 152.404 C236.782 165.563 243.345 174.836 252.899 184.404 C253.558 185.074 254.217 185.745 254.895 186.435 C269.87 200.605 290.11 205.9 310.219 205.619 C329.893 204.974 348.515 195.674 361.899 181.404 C373.584 166.718 379.764 150.041 380.626 131.252 C380.899 129.404 380.899 129.404 382.899 126.404 C384.783 125.981 384.783 125.981 387.139 125.912 C388.041 125.878 388.943 125.845 389.873 125.81 C390.376 125.799 390.376 125.799 392.923 125.744 C393.463 125.727 393.463 125.727 396.195 125.639 C399.888 125.525 403.581 125.433 407.274 125.342 C409.233 125.285 411.192 125.228 413.151 125.169 C430.866 124.644 448.585 124.302 466.305 123.971 C469.681 123.908 473.058 123.844 476.435 123.78 C486.564 123.589 496.693 123.403 506.823 123.242 C511.101 123.173 515.379 123.097 519.658 123.019 C521.655 122.985 523.653 122.953 525.651 122.925 C562.906 122.397 562.906 122.397 574.899 110.404 C583.304 100.017 584.923 89.567 583.899 76.404 C582.019 64.901 575.148 56.191 565.899 49.404 C555.577 43.204 543.655 43.105 531.954 43.174 C530.662 43.174 529.371 43.175 528.04 43.175 C525.332 43.177 522.624 43.185 519.917 43.198 C516.441 43.215 512.965 43.219 509.489 43.218 C506.165 43.219 502.841 43.227 499.516 43.236 C498.265 43.237 497.015 43.238 495.726 43.239 C494.58 43.246 493.435 43.252 492.254 43.259 C491.748 43.261 491.748 43.261 489.185 43.27 C486.899 43.404 486.899 43.404 485.899 44.404 Z M288.087 111.154 C282.908 118.848 280.774 126.132 281.899 135.404 C283.986 144.953 289.068 151.683 296.899 157.404 C304.123 161.845 313.715 161.6 321.743 159.748 C329.332 157.031 335.62 152.4 339.337 145.154 C342.978 136.989 343.397 127.52 340.399 119.029 C337.019 111.794 331.25 106.386 323.981 103.146 C310.045 98.178 298.628 100.847 288.087 111.154 Z "
        transform="translate(200.100830078125,367.595947265625)"
        fill="url(#mcpGradient)"
        fill-rule="evenodd"
        clip-rule="evenodd"
        stroke="#090B24"
        stroke-width="0.8"
        stroke-linejoin="round"
        shape-rendering="geometricPrecision"/>
</svg>
